<svg xmlns="http://www.w3.org/2000/svg" width="1100" height="610" viewBox="0 0 1100 610" role="img" aria-labelledby="chart-title chart-description">
  <title id="chart-title">Cohort retention heatmap</title>
  <desc id="chart-description">Heatmap showing the percentage of each acquisition cohort that purchased again in later months.</desc>
  <rect width="100%" height="100%" fill="#ffffff"/>
  <g font-family="Arial, Helvetica, sans-serif"><text x="145.0" y="45.0" font-size="19px" text-anchor="start" font-weight="500" fill="#17202a">Retention drops sharply after the first purchase month</text><text x="553.0" y="585.0" font-size="13px" text-anchor="middle" font-weight="400" fill="#5b6675">Months since first purchase</text><text x="179.0" y="88.0" font-size="11px" text-anchor="middle" font-weight="400" fill="#5b6675">M+0</text><text x="247.0" y="88.0" font-size="11px" text-anchor="middle" font-weight="400" fill="#5b6675">M+1</text><text x="315.0" y="88.0" font-size="11px" text-anchor="middle" font-weight="400" fill="#5b6675">M+2</text><text x="383.0" y="88.0" font-size="11px" text-anchor="middle" font-weight="400" fill="#5b6675">M+3</text><text x="451.0" y="88.0" font-size="11px" text-anchor="middle" font-weight="400" fill="#5b6675">M+4</text><text x="519.0" y="88.0" font-size="11px" text-anchor="middle" font-weight="400" fill="#5b6675">M+5</text><text x="587.0" y="88.0" font-size="11px" text-anchor="middle" font-weight="400" fill="#5b6675">M+6</text><text x="655.0" y="88.0" font-size="11px" text-anchor="middle" font-weight="400" fill="#5b6675">M+7</text><text x="723.0" y="88.0" font-size="11px" text-anchor="middle" font-weight="400" fill="#5b6675">M+8</text><text x="791.0" y="88.0" font-size="11px" text-anchor="middle" font-weight="400" fill="#5b6675">M+9</text><text x="859.0" y="88.0" font-size="11px" text-anchor="middle" font-weight="400" fill="#5b6675">M+10</text><text x="927.0" y="88.0" font-size="11px" text-anchor="middle" font-weight="400" fill="#5b6675">M+11</text><text x="995.0" y="88.0" font-size="11px" text-anchor="middle" font-weight="400" fill="#5b6675">M+12</text><text x="133.0" y="126.0" font-size="11px" text-anchor="end" font-weight="400" fill="#5b6675">2011-01-01</text><rect x="145" y="105" width="66" height="29" rx="2" fill="rgb(29,65,220)"/><text x="178.0" y="125.0" font-size="10px" text-anchor="middle" font-weight="400" fill="#ffffff">100%</text><rect x="213" y="105" width="66" height="29" rx="2" fill="rgb(191,212,248)"/><text x="246.0" y="125.0" font-size="10px" text-anchor="middle" font-weight="400" fill="#17202a">17%</text><rect x="281" y="105" width="66" height="29" rx="2" fill="rgb(182,204,246)"/><text x="314.0" y="125.0" font-size="10px" text-anchor="middle" font-weight="400" fill="#17202a">21%</text><rect x="349" y="105" width="66" height="29" rx="2" fill="rgb(185,207,247)"/><text x="382.0" y="125.0" font-size="10px" text-anchor="middle" font-weight="400" fill="#17202a">20%</text><rect x="417" y="105" width="66" height="29" rx="2" fill="rgb(182,204,246)"/><text x="450.0" y="125.0" font-size="10px" text-anchor="middle" font-weight="400" fill="#17202a">21%</text><rect x="485" y="105" width="66" height="29" rx="2" fill="rgb(193,214,248)"/><text x="518.0" y="125.0" font-size="10px" text-anchor="middle" font-weight="400" fill="#17202a">15%</text><rect x="553" y="105" width="66" height="29" rx="2" fill="rgb(193,214,248)"/><text x="586.0" y="125.0" font-size="10px" text-anchor="middle" font-weight="400" fill="#17202a">15%</text><rect x="621" y="105" width="66" height="29" rx="2" fill="rgb(199,219,249)"/><text x="654.0" y="125.0" font-size="10px" text-anchor="middle" font-weight="400" fill="#17202a">13%</text><rect x="689" y="105" width="66" height="29" rx="2" fill="rgb(202,222,250)"/><text x="722.0" y="125.0" font-size="10px" text-anchor="middle" font-weight="400" fill="#17202a">11%</text><rect x="757" y="105" width="66" height="29" rx="2" fill="rgb(182,204,246)"/><text x="790.0" y="125.0" font-size="10px" text-anchor="middle" font-weight="400" fill="#17202a">21%</text><rect x="825" y="105" width="66" height="29" rx="2" fill="rgb(174,197,245)"/><text x="858.0" y="125.0" font-size="10px" text-anchor="middle" font-weight="400" fill="#17202a">25%</text><rect x="893" y="105" width="66" height="29" rx="2" fill="rgb(202,222,250)"/><text x="926.0" y="125.0" font-size="10px" text-anchor="middle" font-weight="400" fill="#17202a">11%</text><rect x="961" y="105" width="66" height="29" rx="2" fill="#f1f5f9"/><text x="133.0" y="157.0" font-size="11px" text-anchor="end" font-weight="400" fill="#5b6675">2011-02-01</text><rect x="145" y="136" width="66" height="29" rx="2" fill="rgb(29,65,220)"/><text x="178.0" y="156.0" font-size="10px" text-anchor="middle" font-weight="400" fill="#ffffff">100%</text><rect x="213" y="136" width="66" height="29" rx="2" fill="rgb(192,213,248)"/><text x="246.0" y="156.0" font-size="10px" text-anchor="middle" font-weight="400" fill="#17202a">16%</text><rect x="281" y="136" width="66" height="29" rx="2" fill="rgb(194,214,248)"/><text x="314.0" y="156.0" font-size="10px" text-anchor="middle" font-weight="400" fill="#17202a">15%</text><rect x="349" y="136" width="66" height="29" rx="2" fill="rgb(187,209,247)"/><text x="382.0" y="156.0" font-size="10px" text-anchor="middle" font-weight="400" fill="#17202a">19%</text><rect x="417" y="136" width="66" height="29" rx="2" fill="rgb(181,203,246)"/><text x="450.0" y="156.0" font-size="10px" text-anchor="middle" font-weight="400" fill="#17202a">22%</text><rect x="485" y="136" width="66" height="29" rx="2" fill="rgb(194,214,248)"/><text x="518.0" y="156.0" font-size="10px" text-anchor="middle" font-weight="400" fill="#17202a">15%</text><rect x="553" y="136" width="66" height="29" rx="2" fill="rgb(194,214,248)"/><text x="586.0" y="156.0" font-size="10px" text-anchor="middle" font-weight="400" fill="#17202a">15%</text><rect x="621" y="136" width="66" height="29" rx="2" fill="rgb(195,216,249)"/><text x="654.0" y="156.0" font-size="10px" text-anchor="middle" font-weight="400" fill="#17202a">15%</text><rect x="689" y="136" width="66" height="29" rx="2" fill="rgb(195,216,249)"/><text x="722.0" y="156.0" font-size="10px" text-anchor="middle" font-weight="400" fill="#17202a">15%</text><rect x="757" y="136" width="66" height="29" rx="2" fill="rgb(189,210,247)"/><text x="790.0" y="156.0" font-size="10px" text-anchor="middle" font-weight="400" fill="#17202a">18%</text><rect x="825" y="136" width="66" height="29" rx="2" fill="rgb(212,231,252)"/><text x="858.0" y="156.0" font-size="10px" text-anchor="middle" font-weight="400" fill="#17202a">6%</text><rect x="893" y="136" width="66" height="29" rx="2" fill="#f1f5f9"/><rect x="961" y="136" width="66" height="29" rx="2" fill="#f1f5f9"/><text x="133.0" y="188.0" font-size="11px" text-anchor="end" font-weight="400" fill="#5b6675">2011-03-01</text><rect x="145" y="167" width="66" height="29" rx="2" fill="rgb(29,65,220)"/><text x="178.0" y="187.0" font-size="10px" text-anchor="middle" font-weight="400" fill="#ffffff">100%</text><rect x="213" y="167" width="66" height="29" rx="2" fill="rgb(188,209,247)"/><text x="246.0" y="187.0" font-size="10px" text-anchor="middle" font-weight="400" fill="#17202a">18%</text><rect x="281" y="167" width="66" height="29" rx="2" fill="rgb(181,203,246)"/><text x="314.0" y="187.0" font-size="10px" text-anchor="middle" font-weight="400" fill="#17202a">22%</text><rect x="349" y="167" width="66" height="29" rx="2" fill="rgb(184,206,247)"/><text x="382.0" y="187.0" font-size="10px" text-anchor="middle" font-weight="400" fill="#17202a">20%</text><rect x="417" y="167" width="66" height="29" rx="2" fill="rgb(180,202,246)"/><text x="450.0" y="187.0" font-size="10px" text-anchor="middle" font-weight="400" fill="#17202a">22%</text><rect x="485" y="167" width="66" height="29" rx="2" fill="rgb(194,215,248)"/><text x="518.0" y="187.0" font-size="10px" text-anchor="middle" font-weight="400" fill="#17202a">15%</text><rect x="553" y="167" width="66" height="29" rx="2" fill="rgb(183,205,246)"/><text x="586.0" y="187.0" font-size="10px" text-anchor="middle" font-weight="400" fill="#17202a">21%</text><rect x="621" y="167" width="66" height="29" rx="2" fill="rgb(184,206,247)"/><text x="654.0" y="187.0" font-size="10px" text-anchor="middle" font-weight="400" fill="#17202a">20%</text><rect x="689" y="167" width="66" height="29" rx="2" fill="rgb(177,199,245)"/><text x="722.0" y="187.0" font-size="10px" text-anchor="middle" font-weight="400" fill="#17202a">24%</text><rect x="757" y="167" width="66" height="29" rx="2" fill="rgb(205,225,250)"/><text x="790.0" y="187.0" font-size="10px" text-anchor="middle" font-weight="400" fill="#17202a">10%</text><rect x="825" y="167" width="66" height="29" rx="2" fill="#f1f5f9"/><rect x="893" y="167" width="66" height="29" rx="2" fill="#f1f5f9"/><rect x="961" y="167" width="66" height="29" rx="2" fill="#f1f5f9"/><text x="133.0" y="219.0" font-size="11px" text-anchor="end" font-weight="400" fill="#5b6675">2011-04-01</text><rect x="145" y="198" width="66" height="29" rx="2" fill="rgb(29,65,220)"/><text x="178.0" y="218.0" font-size="10px" text-anchor="middle" font-weight="400" fill="#ffffff">100%</text><rect x="213" y="198" width="66" height="29" rx="2" fill="rgb(174,196,245)"/><text x="246.0" y="218.0" font-size="10px" text-anchor="middle" font-weight="400" fill="#17202a">25%</text><rect x="281" y="198" width="66" height="29" rx="2" fill="rgb(185,206,247)"/><text x="314.0" y="218.0" font-size="10px" text-anchor="middle" font-weight="400" fill="#17202a">20%</text><rect x="349" y="198" width="66" height="29" rx="2" fill="rgb(185,206,247)"/><text x="382.0" y="218.0" font-size="10px" text-anchor="middle" font-weight="400" fill="#17202a">20%</text><rect x="417" y="198" width="66" height="29" rx="2" fill="rgb(189,210,247)"/><text x="450.0" y="218.0" font-size="10px" text-anchor="middle" font-weight="400" fill="#17202a">18%</text><rect x="485" y="198" width="66" height="29" rx="2" fill="rgb(178,200,245)"/><text x="518.0" y="218.0" font-size="10px" text-anchor="middle" font-weight="400" fill="#17202a">24%</text><rect x="553" y="198" width="66" height="29" rx="2" fill="rgb(189,210,247)"/><text x="586.0" y="218.0" font-size="10px" text-anchor="middle" font-weight="400" fill="#17202a">18%</text><rect x="621" y="198" width="66" height="29" rx="2" fill="rgb(174,196,245)"/><text x="654.0" y="218.0" font-size="10px" text-anchor="middle" font-weight="400" fill="#17202a">25%</text><rect x="689" y="198" width="66" height="29" rx="2" fill="rgb(201,221,250)"/><text x="722.0" y="218.0" font-size="10px" text-anchor="middle" font-weight="400" fill="#17202a">11%</text><rect x="757" y="198" width="66" height="29" rx="2" fill="#f1f5f9"/><rect x="825" y="198" width="66" height="29" rx="2" fill="#f1f5f9"/><rect x="893" y="198" width="66" height="29" rx="2" fill="#f1f5f9"/><rect x="961" y="198" width="66" height="29" rx="2" fill="#f1f5f9"/><text x="133.0" y="250.0" font-size="11px" text-anchor="end" font-weight="400" fill="#5b6675">2011-05-01</text><rect x="145" y="229" width="66" height="29" rx="2" fill="rgb(29,65,220)"/><text x="178.0" y="249.0" font-size="10px" text-anchor="middle" font-weight="400" fill="#ffffff">100%</text><rect x="213" y="229" width="66" height="29" rx="2" fill="rgb(178,200,246)"/><text x="246.0" y="249.0" font-size="10px" text-anchor="middle" font-weight="400" fill="#17202a">23%</text><rect x="281" y="229" width="66" height="29" rx="2" fill="rgb(176,198,245)"/><text x="314.0" y="249.0" font-size="10px" text-anchor="middle" font-weight="400" fill="#17202a">24%</text><rect x="349" y="229" width="66" height="29" rx="2" fill="rgb(192,213,248)"/><text x="382.0" y="249.0" font-size="10px" text-anchor="middle" font-weight="400" fill="#17202a">16%</text><rect x="417" y="229" width="66" height="29" rx="2" fill="rgb(181,203,246)"/><text x="450.0" y="249.0" font-size="10px" text-anchor="middle" font-weight="400" fill="#17202a">22%</text><rect x="485" y="229" width="66" height="29" rx="2" fill="rgb(183,205,246)"/><text x="518.0" y="249.0" font-size="10px" text-anchor="middle" font-weight="400" fill="#17202a">21%</text><rect x="553" y="229" width="66" height="29" rx="2" fill="rgb(173,195,245)"/><text x="586.0" y="249.0" font-size="10px" text-anchor="middle" font-weight="400" fill="#17202a">26%</text><rect x="621" y="229" width="66" height="29" rx="2" fill="rgb(201,221,250)"/><text x="654.0" y="249.0" font-size="10px" text-anchor="middle" font-weight="400" fill="#17202a">12%</text><rect x="689" y="229" width="66" height="29" rx="2" fill="#f1f5f9"/><rect x="757" y="229" width="66" height="29" rx="2" fill="#f1f5f9"/><rect x="825" y="229" width="66" height="29" rx="2" fill="#f1f5f9"/><rect x="893" y="229" width="66" height="29" rx="2" fill="#f1f5f9"/><rect x="961" y="229" width="66" height="29" rx="2" fill="#f1f5f9"/><text x="133.0" y="281.0" font-size="11px" text-anchor="end" font-weight="400" fill="#5b6675">2011-06-01</text><rect x="145" y="260" width="66" height="29" rx="2" fill="rgb(29,65,220)"/><text x="178.0" y="280.0" font-size="10px" text-anchor="middle" font-weight="400" fill="#ffffff">100%</text><rect x="213" y="260" width="66" height="29" rx="2" fill="rgb(178,201,246)"/><text x="246.0" y="280.0" font-size="10px" text-anchor="middle" font-weight="400" fill="#17202a">23%</text><rect x="281" y="260" width="66" height="29" rx="2" fill="rgb(182,204,246)"/><text x="314.0" y="280.0" font-size="10px" text-anchor="middle" font-weight="400" fill="#17202a">21%</text><rect x="349" y="260" width="66" height="29" rx="2" fill="rgb(171,194,244)"/><text x="382.0" y="280.0" font-size="10px" text-anchor="middle" font-weight="400" fill="#17202a">27%</text><rect x="417" y="260" width="66" height="29" rx="2" fill="rgb(184,205,247)"/><text x="450.0" y="280.0" font-size="10px" text-anchor="middle" font-weight="400" fill="#17202a">20%</text><rect x="485" y="260" width="66" height="29" rx="2" fill="rgb(168,191,244)"/><text x="518.0" y="280.0" font-size="10px" text-anchor="middle" font-weight="400" fill="#17202a">29%</text><rect x="553" y="260" width="66" height="29" rx="2" fill="rgb(207,227,251)"/><text x="586.0" y="280.0" font-size="10px" text-anchor="middle" font-weight="400" fill="#17202a">8%</text><rect x="621" y="260" width="66" height="29" rx="2" fill="#f1f5f9"/><rect x="689" y="260" width="66" height="29" rx="2" fill="#f1f5f9"/><rect x="757" y="260" width="66" height="29" rx="2" fill="#f1f5f9"/><rect x="825" y="260" width="66" height="29" rx="2" fill="#f1f5f9"/><rect x="893" y="260" width="66" height="29" rx="2" fill="#f1f5f9"/><rect x="961" y="260" width="66" height="29" rx="2" fill="#f1f5f9"/><text x="133.0" y="312.0" font-size="11px" text-anchor="end" font-weight="400" fill="#5b6675">2011-07-01</text><rect x="145" y="291" width="66" height="29" rx="2" fill="rgb(29,65,220)"/><text x="178.0" y="311.0" font-size="10px" text-anchor="middle" font-weight="400" fill="#ffffff">100%</text><rect x="213" y="291" width="66" height="29" rx="2" fill="rgb(181,203,246)"/><text x="246.0" y="311.0" font-size="10px" text-anchor="middle" font-weight="400" fill="#17202a">22%</text><rect x="281" y="291" width="66" height="29" rx="2" fill="rgb(164,188,243)"/><text x="314.0" y="311.0" font-size="10px" text-anchor="middle" font-weight="400" fill="#17202a">30%</text><rect x="349" y="291" width="66" height="29" rx="2" fill="rgb(170,193,244)"/><text x="382.0" y="311.0" font-size="10px" text-anchor="middle" font-weight="400" fill="#17202a">27%</text><rect x="417" y="291" width="66" height="29" rx="2" fill="rgb(157,181,242)"/><text x="450.0" y="311.0" font-size="10px" text-anchor="middle" font-weight="400" fill="#17202a">34%</text><rect x="485" y="291" width="66" height="29" rx="2" fill="rgb(193,214,248)"/><text x="518.0" y="311.0" font-size="10px" text-anchor="middle" font-weight="400" fill="#17202a">16%</text><rect x="553" y="291" width="66" height="29" rx="2" fill="#f1f5f9"/><rect x="621" y="291" width="66" height="29" rx="2" fill="#f1f5f9"/><rect x="689" y="291" width="66" height="29" rx="2" fill="#f1f5f9"/><rect x="757" y="291" width="66" height="29" rx="2" fill="#f1f5f9"/><rect x="825" y="291" width="66" height="29" rx="2" fill="#f1f5f9"/><rect x="893" y="291" width="66" height="29" rx="2" fill="#f1f5f9"/><rect x="961" y="291" width="66" height="29" rx="2" fill="#f1f5f9"/><text x="133.0" y="343.0" font-size="11px" text-anchor="end" font-weight="400" fill="#5b6675">2011-08-01</text><rect x="145" y="322" width="66" height="29" rx="2" fill="rgb(29,65,220)"/><text x="178.0" y="342.0" font-size="10px" text-anchor="middle" font-weight="400" fill="#ffffff">100%</text><rect x="213" y="322" width="66" height="29" rx="2" fill="rgb(170,193,244)"/><text x="246.0" y="342.0" font-size="10px" text-anchor="middle" font-weight="400" fill="#17202a">27%</text><rect x="281" y="322" width="66" height="29" rx="2" fill="rgb(163,186,243)"/><text x="314.0" y="342.0" font-size="10px" text-anchor="middle" font-weight="400" fill="#17202a">31%</text><rect x="349" y="322" width="66" height="29" rx="2" fill="rgb(172,195,245)"/><text x="382.0" y="342.0" font-size="10px" text-anchor="middle" font-weight="400" fill="#17202a">26%</text><rect x="417" y="322" width="66" height="29" rx="2" fill="rgb(190,211,248)"/><text x="450.0" y="342.0" font-size="10px" text-anchor="middle" font-weight="400" fill="#17202a">17%</text><rect x="485" y="322" width="66" height="29" rx="2" fill="#f1f5f9"/><rect x="553" y="322" width="66" height="29" rx="2" fill="#f1f5f9"/><rect x="621" y="322" width="66" height="29" rx="2" fill="#f1f5f9"/><rect x="689" y="322" width="66" height="29" rx="2" fill="#f1f5f9"/><rect x="757" y="322" width="66" height="29" rx="2" fill="#f1f5f9"/><rect x="825" y="322" width="66" height="29" rx="2" fill="#f1f5f9"/><rect x="893" y="322" width="66" height="29" rx="2" fill="#f1f5f9"/><rect x="961" y="322" width="66" height="29" rx="2" fill="#f1f5f9"/><text x="133.0" y="374.0" font-size="11px" text-anchor="end" font-weight="400" fill="#5b6675">2011-09-01</text><rect x="145" y="353" width="66" height="29" rx="2" fill="rgb(29,65,220)"/><text x="178.0" y="373.0" font-size="10px" text-anchor="middle" font-weight="400" fill="#ffffff">100%</text><rect x="213" y="353" width="66" height="29" rx="2" fill="rgb(171,194,244)"/><text x="246.0" y="373.0" font-size="10px" text-anchor="middle" font-weight="400" fill="#17202a">27%</text><rect x="281" y="353" width="66" height="29" rx="2" fill="rgb(150,175,241)"/><text x="314.0" y="373.0" font-size="10px" text-anchor="middle" font-weight="400" fill="#17202a">38%</text><rect x="349" y="353" width="66" height="29" rx="2" fill="rgb(195,215,248)"/><text x="382.0" y="373.0" font-size="10px" text-anchor="middle" font-weight="400" fill="#17202a">15%</text><rect x="417" y="353" width="66" height="29" rx="2" fill="#f1f5f9"/><rect x="485" y="353" width="66" height="29" rx="2" fill="#f1f5f9"/><rect x="553" y="353" width="66" height="29" rx="2" fill="#f1f5f9"/><rect x="621" y="353" width="66" height="29" rx="2" fill="#f1f5f9"/><rect x="689" y="353" width="66" height="29" rx="2" fill="#f1f5f9"/><rect x="757" y="353" width="66" height="29" rx="2" fill="#f1f5f9"/><rect x="825" y="353" width="66" height="29" rx="2" fill="#f1f5f9"/><rect x="893" y="353" width="66" height="29" rx="2" fill="#f1f5f9"/><rect x="961" y="353" width="66" height="29" rx="2" fill="#f1f5f9"/><text x="133.0" y="405.0" font-size="11px" text-anchor="end" font-weight="400" fill="#5b6675">2011-10-01</text><rect x="145" y="384" width="66" height="29" rx="2" fill="rgb(29,65,220)"/><text x="178.0" y="404.0" font-size="10px" text-anchor="middle" font-weight="400" fill="#ffffff">100%</text><rect x="213" y="384" width="66" height="29" rx="2" fill="rgb(161,185,243)"/><text x="246.0" y="404.0" font-size="10px" text-anchor="middle" font-weight="400" fill="#17202a">32%</text><rect x="281" y="384" width="66" height="29" rx="2" fill="rgb(193,213,248)"/><text x="314.0" y="404.0" font-size="10px" text-anchor="middle" font-weight="400" fill="#17202a">16%</text><rect x="349" y="384" width="66" height="29" rx="2" fill="#f1f5f9"/><rect x="417" y="384" width="66" height="29" rx="2" fill="#f1f5f9"/><rect x="485" y="384" width="66" height="29" rx="2" fill="#f1f5f9"/><rect x="553" y="384" width="66" height="29" rx="2" fill="#f1f5f9"/><rect x="621" y="384" width="66" height="29" rx="2" fill="#f1f5f9"/><rect x="689" y="384" width="66" height="29" rx="2" fill="#f1f5f9"/><rect x="757" y="384" width="66" height="29" rx="2" fill="#f1f5f9"/><rect x="825" y="384" width="66" height="29" rx="2" fill="#f1f5f9"/><rect x="893" y="384" width="66" height="29" rx="2" fill="#f1f5f9"/><rect x="961" y="384" width="66" height="29" rx="2" fill="#f1f5f9"/><text x="133.0" y="436.0" font-size="11px" text-anchor="end" font-weight="400" fill="#5b6675">2011-11-01</text><rect x="145" y="415" width="66" height="29" rx="2" fill="rgb(29,65,220)"/><text x="178.0" y="435.0" font-size="10px" text-anchor="middle" font-weight="400" fill="#ffffff">100%</text><rect x="213" y="415" width="66" height="29" rx="2" fill="rgb(196,216,249)"/><text x="246.0" y="435.0" font-size="10px" text-anchor="middle" font-weight="400" fill="#17202a">14%</text><rect x="281" y="415" width="66" height="29" rx="2" fill="#f1f5f9"/><rect x="349" y="415" width="66" height="29" rx="2" fill="#f1f5f9"/><rect x="417" y="415" width="66" height="29" rx="2" fill="#f1f5f9"/><rect x="485" y="415" width="66" height="29" rx="2" fill="#f1f5f9"/><rect x="553" y="415" width="66" height="29" rx="2" fill="#f1f5f9"/><rect x="621" y="415" width="66" height="29" rx="2" fill="#f1f5f9"/><rect x="689" y="415" width="66" height="29" rx="2" fill="#f1f5f9"/><rect x="757" y="415" width="66" height="29" rx="2" fill="#f1f5f9"/><rect x="825" y="415" width="66" height="29" rx="2" fill="#f1f5f9"/><rect x="893" y="415" width="66" height="29" rx="2" fill="#f1f5f9"/><rect x="961" y="415" width="66" height="29" rx="2" fill="#f1f5f9"/><text x="133.0" y="467.0" font-size="11px" text-anchor="end" font-weight="400" fill="#5b6675">2011-12-01</text><rect x="145" y="446" width="66" height="29" rx="2" fill="rgb(29,65,220)"/><text x="178.0" y="466.0" font-size="10px" text-anchor="middle" font-weight="400" fill="#ffffff">100%</text><rect x="213" y="446" width="66" height="29" rx="2" fill="#f1f5f9"/><rect x="281" y="446" width="66" height="29" rx="2" fill="#f1f5f9"/><rect x="349" y="446" width="66" height="29" rx="2" fill="#f1f5f9"/><rect x="417" y="446" width="66" height="29" rx="2" fill="#f1f5f9"/><rect x="485" y="446" width="66" height="29" rx="2" fill="#f1f5f9"/><rect x="553" y="446" width="66" height="29" rx="2" fill="#f1f5f9"/><rect x="621" y="446" width="66" height="29" rx="2" fill="#f1f5f9"/><rect x="689" y="446" width="66" height="29" rx="2" fill="#f1f5f9"/><rect x="757" y="446" width="66" height="29" rx="2" fill="#f1f5f9"/><rect x="825" y="446" width="66" height="29" rx="2" fill="#f1f5f9"/><rect x="893" y="446" width="66" height="29" rx="2" fill="#f1f5f9"/><rect x="961" y="446" width="66" height="29" rx="2" fill="#f1f5f9"/></g>
</svg>
