<svg xmlns="http://www.w3.org/2000/svg" width="1100" height="670" viewBox="0 0 1100 670" role="img" aria-labelledby="chart-title chart-description">
  <title id="chart-title">Monthly sales and order trend</title>
  <desc id="chart-description">Two line charts show monthly revenue and completed orders.</desc>
  <rect width="100%" height="100%" fill="#ffffff"/>
  <g font-family="Arial, Helvetica, sans-serif"><text x="80.0" y="42.0" font-size="19px" text-anchor="start" font-weight="500" fill="#17202a">Monthly sales trend provides context before product planning</text><text x="105.0" y="82.0" font-size="16px" text-anchor="start" font-weight="500" fill="#17202a">Monthly revenue</text><line x1="105" y1="302.0" x2="1005" y2="302.0" stroke="#d9dee7" stroke-width="1"/><text x="95.0" y="306.0" font-size="11px" text-anchor="end" font-weight="400" fill="#5b6675">GBP 0.0m</text><line x1="105" y1="206.0" x2="1005" y2="206.0" stroke="#d9dee7" stroke-width="1"/><text x="95.0" y="210.0" font-size="11px" text-anchor="end" font-weight="400" fill="#5b6675">GBP 0.7m</text><line x1="105" y1="110.0" x2="1005" y2="110.0" stroke="#d9dee7" stroke-width="1"/><text x="95.0" y="114.0" font-size="11px" text-anchor="end" font-weight="400" fill="#5b6675">GBP 1.3m</text><polyline points="105.0,201.5 142.5,220.3 180.0,227.8 217.5,199.6 255.0,215.0 292.5,214.1 330.0,208.5 367.5,215.3 405.0,213.5 442.5,180.2 480.0,150.2 517.5,130.6 555.0,172.5 592.5,218.5 630.0,236.4 667.5,214.7 705.0,233.2 742.5,202.5 780.0,205.0 817.5,214.0 855.0,207.3 892.5,162.3 930.0,149.8 967.5,132.1 1005.0,226.0" fill="none" stroke="#2563eb" stroke-width="3" stroke-linejoin="round" stroke-linecap="round"/><circle cx="105.0" cy="201.5" r="4" fill="#ffffff" stroke="#2563eb" stroke-width="2"/><circle cx="142.5" cy="220.3" r="4" fill="#ffffff" stroke="#2563eb" stroke-width="2"/><circle cx="180.0" cy="227.8" r="4" fill="#ffffff" stroke="#2563eb" stroke-width="2"/><circle cx="217.5" cy="199.6" r="4" fill="#ffffff" stroke="#2563eb" stroke-width="2"/><circle cx="255.0" cy="215.0" r="4" fill="#ffffff" stroke="#2563eb" stroke-width="2"/><circle cx="292.5" cy="214.1" r="4" fill="#ffffff" stroke="#2563eb" stroke-width="2"/><circle cx="330.0" cy="208.5" r="4" fill="#ffffff" stroke="#2563eb" stroke-width="2"/><circle cx="367.5" cy="215.3" r="4" fill="#ffffff" stroke="#2563eb" stroke-width="2"/><circle cx="405.0" cy="213.5" r="4" fill="#ffffff" stroke="#2563eb" stroke-width="2"/><circle cx="442.5" cy="180.2" r="4" fill="#ffffff" stroke="#2563eb" stroke-width="2"/><circle cx="480.0" cy="150.2" r="4" fill="#ffffff" stroke="#2563eb" stroke-width="2"/><circle cx="517.5" cy="130.6" r="4" fill="#ffffff" stroke="#2563eb" stroke-width="2"/><circle cx="555.0" cy="172.5" r="4" fill="#ffffff" stroke="#2563eb" stroke-width="2"/><circle cx="592.5" cy="218.5" r="4" fill="#ffffff" stroke="#2563eb" stroke-width="2"/><circle cx="630.0" cy="236.4" r="4" fill="#ffffff" stroke="#2563eb" stroke-width="2"/><circle cx="667.5" cy="214.7" r="4" fill="#ffffff" stroke="#2563eb" stroke-width="2"/><circle cx="705.0" cy="233.2" r="4" fill="#ffffff" stroke="#2563eb" stroke-width="2"/><circle cx="742.5" cy="202.5" r="4" fill="#ffffff" stroke="#2563eb" stroke-width="2"/><circle cx="780.0" cy="205.0" r="4" fill="#ffffff" stroke="#2563eb" stroke-width="2"/><circle cx="817.5" cy="214.0" r="4" fill="#ffffff" stroke="#2563eb" stroke-width="2"/><circle cx="855.0" cy="207.3" r="4" fill="#ffffff" stroke="#2563eb" stroke-width="2"/><circle cx="892.5" cy="162.3" r="4" fill="#ffffff" stroke="#2563eb" stroke-width="2"/><circle cx="930.0" cy="149.8" r="4" fill="#ffffff" stroke="#2563eb" stroke-width="2"/><circle cx="967.5" cy="132.1" r="4" fill="#ffffff" stroke="#2563eb" stroke-width="2"/><circle cx="1005.0" cy="226.0" r="4" fill="#ffffff" stroke="#2563eb" stroke-width="2"/><text x="105.0" y="324.0" font-size="10px" text-anchor="middle" font-weight="400" fill="#5b6675">2009-12</text><text x="255.0" y="324.0" font-size="10px" text-anchor="middle" font-weight="400" fill="#5b6675">2010-04</text><text x="405.0" y="324.0" font-size="10px" text-anchor="middle" font-weight="400" fill="#5b6675">2010-08</text><text x="555.0" y="324.0" font-size="10px" text-anchor="middle" font-weight="400" fill="#5b6675">2010-12</text><text x="705.0" y="324.0" font-size="10px" text-anchor="middle" font-weight="400" fill="#5b6675">2011-04</text><text x="855.0" y="324.0" font-size="10px" text-anchor="middle" font-weight="400" fill="#5b6675">2011-08</text><text x="1005.0" y="324.0" font-size="10px" text-anchor="middle" font-weight="400" fill="#5b6675">2011-12</text><text x="105.0" y="375.0" font-size="16px" text-anchor="start" font-weight="500" fill="#17202a">Monthly orders</text><line x1="105" y1="595.0" x2="1005" y2="595.0" stroke="#d9dee7" stroke-width="1"/><text x="95.0" y="599.0" font-size="11px" text-anchor="end" font-weight="400" fill="#5b6675">0</text><line x1="105" y1="499.0" x2="1005" y2="499.0" stroke="#d9dee7" stroke-width="1"/><text x="95.0" y="503.0" font-size="11px" text-anchor="end" font-weight="400" fill="#5b6675">1,488</text><line x1="105" y1="403.0" x2="1005" y2="403.0" stroke="#d9dee7" stroke-width="1"/><text x="95.0" y="407.0" font-size="11px" text-anchor="end" font-weight="400" fill="#5b6675">2,976</text><polyline points="105.0,497.4 142.5,529.8 180.0,523.8 217.5,496.7 255.0,509.3 292.5,506.2 330.0,498.4 367.5,505.9 405.0,511.6 442.5,486.0 480.0,457.4 517.5,428.1 555.0,504.7 592.5,531.3 630.0,530.7 667.5,509.8 705.0,520.9 742.5,494.7 780.0,505.1 817.5,509.1 855.0,512.4 892.5,481.8 930.0,470.5 967.5,423.6 1005.0,544.8" fill="none" stroke="#0f766e" stroke-width="3" stroke-linejoin="round" stroke-linecap="round"/><circle cx="105.0" cy="497.4" r="4" fill="#ffffff" stroke="#0f766e" stroke-width="2"/><circle cx="142.5" cy="529.8" r="4" fill="#ffffff" stroke="#0f766e" stroke-width="2"/><circle cx="180.0" cy="523.8" r="4" fill="#ffffff" stroke="#0f766e" stroke-width="2"/><circle cx="217.5" cy="496.7" r="4" fill="#ffffff" stroke="#0f766e" stroke-width="2"/><circle cx="255.0" cy="509.3" r="4" fill="#ffffff" stroke="#0f766e" stroke-width="2"/><circle cx="292.5" cy="506.2" r="4" fill="#ffffff" stroke="#0f766e" stroke-width="2"/><circle cx="330.0" cy="498.4" r="4" fill="#ffffff" stroke="#0f766e" stroke-width="2"/><circle cx="367.5" cy="505.9" r="4" fill="#ffffff" stroke="#0f766e" stroke-width="2"/><circle cx="405.0" cy="511.6" r="4" fill="#ffffff" stroke="#0f766e" stroke-width="2"/><circle cx="442.5" cy="486.0" r="4" fill="#ffffff" stroke="#0f766e" stroke-width="2"/><circle cx="480.0" cy="457.4" r="4" fill="#ffffff" stroke="#0f766e" stroke-width="2"/><circle cx="517.5" cy="428.1" r="4" fill="#ffffff" stroke="#0f766e" stroke-width="2"/><circle cx="555.0" cy="504.7" r="4" fill="#ffffff" stroke="#0f766e" stroke-width="2"/><circle cx="592.5" cy="531.3" r="4" fill="#ffffff" stroke="#0f766e" stroke-width="2"/><circle cx="630.0" cy="530.7" r="4" fill="#ffffff" stroke="#0f766e" stroke-width="2"/><circle cx="667.5" cy="509.8" r="4" fill="#ffffff" stroke="#0f766e" stroke-width="2"/><circle cx="705.0" cy="520.9" r="4" fill="#ffffff" stroke="#0f766e" stroke-width="2"/><circle cx="742.5" cy="494.7" r="4" fill="#ffffff" stroke="#0f766e" stroke-width="2"/><circle cx="780.0" cy="505.1" r="4" fill="#ffffff" stroke="#0f766e" stroke-width="2"/><circle cx="817.5" cy="509.1" r="4" fill="#ffffff" stroke="#0f766e" stroke-width="2"/><circle cx="855.0" cy="512.4" r="4" fill="#ffffff" stroke="#0f766e" stroke-width="2"/><circle cx="892.5" cy="481.8" r="4" fill="#ffffff" stroke="#0f766e" stroke-width="2"/><circle cx="930.0" cy="470.5" r="4" fill="#ffffff" stroke="#0f766e" stroke-width="2"/><circle cx="967.5" cy="423.6" r="4" fill="#ffffff" stroke="#0f766e" stroke-width="2"/><circle cx="1005.0" cy="544.8" r="4" fill="#ffffff" stroke="#0f766e" stroke-width="2"/><text x="105.0" y="617.0" font-size="10px" text-anchor="middle" font-weight="400" fill="#5b6675">2009-12</text><text x="255.0" y="617.0" font-size="10px" text-anchor="middle" font-weight="400" fill="#5b6675">2010-04</text><text x="405.0" y="617.0" font-size="10px" text-anchor="middle" font-weight="400" fill="#5b6675">2010-08</text><text x="555.0" y="617.0" font-size="10px" text-anchor="middle" font-weight="400" fill="#5b6675">2010-12</text><text x="705.0" y="617.0" font-size="10px" text-anchor="middle" font-weight="400" fill="#5b6675">2011-04</text><text x="855.0" y="617.0" font-size="10px" text-anchor="middle" font-weight="400" fill="#5b6675">2011-08</text><text x="1005.0" y="617.0" font-size="10px" text-anchor="middle" font-weight="400" fill="#5b6675">2011-12</text></g>
</svg>
